# xmcd
#
# Track frame offsets:
# 150
# 16773
# 32458
# 49279
# 59459
# 71809
# 84761
# 96584
# 109007
# 121207
# 133630
# 146482
#
# Disc length: 2141 seconds
#
#
# Revision: 0
# Processed by: cddbd v1.5PL3 Copyright (c) Steve Scherf et al.
# Submitted via: FreeRIP 2.53 
#
DISCID=a0085b0c
DTITLE=Haggard, Merle - 12 # 1 Hits
DYEAR=1900
DGENRE=Country
TTITLE0=Daddy Frank(The Guitar Man)
TTITLE1=Hungry Eyes
TTITLE2=I Think I'll Stay Here And Drink
TTITLE3=Mama Tried
TTITLE4=Okie From Muskogee
TTITLE5=The Fightin' Side Of Me
TTITLE6=Workin' Man Blues
TTITLE7=If We Make It Through December
TTITLE8=Kentucky Gambler
TTITLE9=Everybody's Had The Blues
TTITLE10=Sing Me Back Home
TTITLE11=Always Wanting You
EXTD=
EXTT0=
EXTT1=
EXTT2=
EXTT3=
EXTT4=
EXTT5=
EXTT6=
EXTT7=
EXTT8=
EXTT9=
EXTT10=
EXTT11=
PLAYORDER=
